<svg xmlns="http://www.w3.org/2000/svg" xmlns:xlink="http://www.w3.org/1999/xlink" width="500" zoomAndPan="magnify" viewBox="0 0 375 374.999991" height="500" preserveAspectRatio="xMidYMid meet" version="1.0"><defs><clipPath id="id1"><path d="M 63.359375 63.359375 L 311.609375 63.359375 L 311.609375 311.609375 L 63.359375 311.609375 Z M 63.359375 63.359375 " clip-rule="nonzero"/></clipPath></defs><g clip-path="url(#id1)"><path fill="#ffffff" d="M 137.835938 261.960938 C 124.117188 261.960938 113.132812 273.070312 113.132812 286.785156 C 113.132812 300.5 124.117188 311.609375 137.835938 311.609375 C 151.550781 311.609375 162.660156 300.5 162.660156 286.785156 C 162.660156 273.070312 151.550781 261.960938 137.835938 261.960938 Z M 63.359375 63.359375 L 63.359375 88.183594 L 88.183594 88.183594 L 132.808594 182.332031 L 116.050781 212.742188 C 114.125 216.34375 113.007812 220.378906 113.007812 224.722656 C 113.007812 238.4375 124.117188 249.546875 137.835938 249.546875 L 286.785156 249.546875 L 286.785156 224.722656 L 143.109375 224.722656 C 141.371094 224.722656 140.007812 223.355469 140.007812 221.617188 C 140.007812 221.058594 140.128906 220.5625 140.378906 220.128906 L 151.488281 199.898438 L 243.960938 199.898438 C 253.269531 199.898438 261.402344 194.746094 265.683594 187.113281 L 310.058594 106.554688 C 311.050781 104.816406 311.609375 102.769531 311.609375 100.597656 C 311.609375 93.707031 306.023438 88.183594 299.195312 88.183594 L 115.679688 88.183594 L 103.886719 63.359375 Z M 261.960938 261.960938 C 248.242188 261.960938 237.257812 273.070312 237.257812 286.785156 C 237.257812 300.5 248.242188 311.609375 261.960938 311.609375 C 275.675781 311.609375 286.785156 300.5 286.785156 286.785156 C 286.785156 273.070312 275.675781 261.960938 261.960938 261.960938 Z M 261.960938 261.960938 " fill-opacity="1" fill-rule="nonzero"/></g></svg>