<svg xmlns="http://www.w3.org/2000/svg" xmlns:xlink="http://www.w3.org/1999/xlink" width="500" zoomAndPan="magnify" viewBox="0 0 375 374.999991" height="500" preserveAspectRatio="xMidYMid meet" version="1.0"><defs><g/><clipPath id="id1"><path d="M 63.359375 63.359375 L 311.609375 63.359375 L 311.609375 311.609375 L 63.359375 311.609375 Z M 63.359375 63.359375 " clip-rule="nonzero"/></clipPath><clipPath id="id2"><path d="M 32.855469 43.183594 L 324.605469 43.183594 L 324.605469 259.933594 L 32.855469 259.933594 Z M 32.855469 43.183594 " clip-rule="nonzero"/></clipPath><clipPath id="id3"><path d="M 196 133 L 280 133 L 280 259.933594 L 196 259.933594 Z M 196 133 " clip-rule="nonzero"/></clipPath><clipPath id="id4"><path d="M 194 179 L 200 179 L 200 259.933594 L 194 259.933594 Z M 194 179 " clip-rule="nonzero"/></clipPath></defs><g clip-path="url(#id1)"><path fill="#ffffff" d="M 137.835938 261.960938 C 124.117188 261.960938 113.132812 273.070312 113.132812 286.785156 C 113.132812 300.5 124.117188 311.609375 137.835938 311.609375 C 151.550781 311.609375 162.660156 300.5 162.660156 286.785156 C 162.660156 273.070312 151.550781 261.960938 137.835938 261.960938 Z M 63.359375 63.359375 L 63.359375 88.183594 L 88.183594 88.183594 L 132.808594 182.332031 L 116.050781 212.742188 C 114.125 216.34375 113.007812 220.378906 113.007812 224.722656 C 113.007812 238.4375 124.117188 249.546875 137.835938 249.546875 L 286.785156 249.546875 L 286.785156 224.722656 L 143.109375 224.722656 C 141.371094 224.722656 140.007812 223.355469 140.007812 221.617188 C 140.007812 221.058594 140.128906 220.5625 140.378906 220.128906 L 151.488281 199.898438 L 243.960938 199.898438 C 253.269531 199.898438 261.402344 194.746094 265.683594 187.113281 L 310.058594 106.554688 C 311.050781 104.816406 311.609375 102.769531 311.609375 100.597656 C 311.609375 93.707031 306.023438 88.183594 299.195312 88.183594 L 115.679688 88.183594 L 103.886719 63.359375 Z M 261.960938 261.960938 C 248.242188 261.960938 237.257812 273.070312 237.257812 286.785156 C 237.257812 300.5 248.242188 311.609375 261.960938 311.609375 C 275.675781 311.609375 286.785156 300.5 286.785156 286.785156 C 286.785156 273.070312 275.675781 261.960938 261.960938 261.960938 Z M 261.960938 261.960938 " fill-opacity="1" fill-rule="nonzero"/></g><g clip-path="url(#id2)"><path fill="#00002f" d="M 189.433594 43.175781 L 168.421875 87.867188 L 168.515625 87.902344 L 167.84375 88.234375 L 131.632812 56.421875 L 52.472656 90.320312 L 90.265625 129.160156 L 90.414062 129.085938 L 90.65625 130.082031 L 86.78125 128.292969 L 32.875 133.347656 L 90.601562 159.738281 L 94.921875 205.976562 L 199.421875 258.761719 L 199.457031 259.941406 L 200.128906 259.480469 L 200.148438 259.886719 L 200.148438 259.480469 L 281.789062 203.855469 L 281.789062 145.613281 L 324.574219 118.40625 L 282.386719 126.488281 L 314.253906 82.019531 L 189.4375 43.179688 Z M 281.261719 126.875 L 281.335938 126.910156 L 281.242188 126.949219 Z M 281.261719 126.875 " fill-opacity="1" fill-rule="evenodd"/></g><path fill="#8d622f" d="M 91.78125 128.191406 L 170.847656 88.210938 L 279.453125 126.453125 L 270.765625 195.117188 L 187.355469 228.144531 L 105.683594 187.296875 L 91.78125 128.195312 Z M 91.78125 128.191406 " fill-opacity="1" fill-rule="evenodd"/><path fill="#9d6e2d" d="M 91.886719 129.34375 L 169.601562 90.121094 L 132.496094 57.203125 L 54.777344 90.824219 Z M 91.886719 129.34375 " fill-opacity="1" fill-rule="evenodd"/><path fill="#9d6e2d" d="M 168.613281 88.382812 L 189.234375 44.066406 L 311.761719 82.589844 L 280.035156 127.304688 L 168.617188 88.382812 Z M 168.613281 88.382812 " fill-opacity="1" fill-rule="evenodd"/><path fill="#000000" d="M 97.859375 202.070312 L 172.210938 153.847656 L 169.976562 88.210938 L 175.046875 153.605469 L 275.976562 201.199219 L 173.484375 156.765625 L 97.863281 202.066406 Z M 97.859375 202.070312 " fill-opacity="0.5765" fill-rule="evenodd"/><g clip-path="url(#id3)"><path fill="#9d6e2d" d="M 199.074219 259.046875 L 196.667969 180.542969 L 279.890625 133.378906 L 279.890625 203.417969 L 199.078125 259.046875 Z M 199.074219 259.046875 " fill-opacity="1" fill-rule="evenodd"/></g><path fill="#000000" d="M 279.988281 126.78125 L 193.304688 179.605469 L 239.929688 171.332031 L 321.902344 118.671875 L 279.984375 126.78125 Z M 279.988281 126.78125 " fill-opacity="1" fill-rule="evenodd"/><path fill="#9d6e2d" d="M 279.554688 127.097656 L 196.570312 177.507812 L 239.980469 169.800781 L 316.296875 120.773438 Z M 279.554688 127.097656 " fill-opacity="1" fill-rule="evenodd"/><path fill="#9d6e2d" d="M 89.453125 129.875 L 96.453125 205.519531 L 199.378906 258.046875 L 195.875 179.601562 Z M 89.453125 129.875 " fill-opacity="1" fill-rule="evenodd"/><path fill="#000000" d="M 88.457031 128.476562 L 199.375 180.09375 L 156.601562 189.410156 L 35.539062 133.496094 L 88.460938 128.476562 Z M 88.457031 128.476562 " fill-opacity="1" fill-rule="evenodd"/><path fill="#9d6e2d" d="M 89.453125 129.179688 L 196.578125 179.015625 L 155.269531 188.011719 L 38.339844 134.023438 Z M 89.453125 129.179688 " fill-opacity="1" fill-rule="evenodd"/><g clip-path="url(#id4)"><path fill="#000000" d="M 199.742188 259.007812 L 194.828125 179.019531 L 198.105469 179.019531 Z M 199.742188 259.007812 " fill-opacity="1" fill-rule="evenodd"/></g><path fill="#000000" d="M 91.78125 128.191406 L 169.109375 88.210938 L 280.324219 127.320312 L 168.246094 90.816406 L 91.785156 128.191406 Z M 91.78125 128.191406 " fill-opacity="1" fill-rule="evenodd"/><g fill="#000000" fill-opacity="1"><g transform="translate(34.588629, 307.146981)"><g><path d="M 8.1875 -3.171875 C 8.1875 -2.140625 7.8125 -1.328125 7.0625 -0.734375 C 6.320312 -0.140625 5.289062 0.15625 3.96875 0.15625 C 2.75 0.15625 1.671875 -0.0703125 0.734375 -0.53125 L 0.734375 -2.78125 C 1.503906 -2.4375 2.15625 -2.191406 2.6875 -2.046875 C 3.226562 -1.910156 3.71875 -1.84375 4.15625 -1.84375 C 4.6875 -1.84375 5.09375 -1.941406 5.375 -2.140625 C 5.664062 -2.347656 5.8125 -2.65625 5.8125 -3.0625 C 5.8125 -3.28125 5.75 -3.476562 5.625 -3.65625 C 5.5 -3.832031 5.3125 -4 5.0625 -4.15625 C 4.820312 -4.320312 4.332031 -4.582031 3.59375 -4.9375 C 2.894531 -5.257812 2.367188 -5.570312 2.015625 -5.875 C 1.671875 -6.175781 1.394531 -6.523438 1.1875 -6.921875 C 0.976562 -7.328125 0.875 -7.800781 0.875 -8.34375 C 0.875 -9.351562 1.210938 -10.144531 1.890625 -10.71875 C 2.578125 -11.300781 3.523438 -11.59375 4.734375 -11.59375 C 5.328125 -11.59375 5.894531 -11.519531 6.4375 -11.375 C 6.976562 -11.238281 7.539062 -11.039062 8.125 -10.78125 L 7.34375 -8.90625 C 6.738281 -9.15625 6.234375 -9.328125 5.828125 -9.421875 C 5.429688 -9.523438 5.039062 -9.578125 4.65625 -9.578125 C 4.195312 -9.578125 3.84375 -9.46875 3.59375 -9.25 C 3.351562 -9.039062 3.234375 -8.765625 3.234375 -8.421875 C 3.234375 -8.203125 3.28125 -8.015625 3.375 -7.859375 C 3.476562 -7.703125 3.640625 -7.546875 3.859375 -7.390625 C 4.078125 -7.242188 4.585938 -6.976562 5.390625 -6.59375 C 6.460938 -6.082031 7.195312 -5.570312 7.59375 -5.0625 C 7.988281 -4.550781 8.1875 -3.921875 8.1875 -3.171875 Z M 8.1875 -3.171875 "/></g></g></g><g fill="#000000" fill-opacity="1"><g transform="translate(43.398977, 307.146981)"><g><path d="M 3.15625 -4.390625 C 3.15625 -3.523438 3.296875 -2.867188 3.578125 -2.421875 C 3.859375 -1.984375 4.320312 -1.765625 4.96875 -1.765625 C 5.601562 -1.765625 6.054688 -1.984375 6.328125 -2.421875 C 6.609375 -2.859375 6.75 -3.515625 6.75 -4.390625 C 6.75 -5.253906 6.609375 -5.898438 6.328125 -6.328125 C 6.046875 -6.765625 5.585938 -6.984375 4.953125 -6.984375 C 4.316406 -6.984375 3.859375 -6.765625 3.578125 -6.328125 C 3.296875 -5.898438 3.15625 -5.253906 3.15625 -4.390625 Z M 9.1875 -4.390625 C 9.1875 -2.960938 8.8125 -1.847656 8.0625 -1.046875 C 7.3125 -0.242188 6.269531 0.15625 4.9375 0.15625 C 4.09375 0.15625 3.347656 -0.0234375 2.703125 -0.390625 C 2.066406 -0.765625 1.578125 -1.296875 1.234375 -1.984375 C 0.890625 -2.671875 0.71875 -3.472656 0.71875 -4.390625 C 0.71875 -5.816406 1.085938 -6.925781 1.828125 -7.71875 C 2.578125 -8.507812 3.628906 -8.90625 4.984375 -8.90625 C 5.816406 -8.90625 6.550781 -8.722656 7.1875 -8.359375 C 7.832031 -7.992188 8.328125 -7.46875 8.671875 -6.78125 C 9.015625 -6.101562 9.1875 -5.304688 9.1875 -4.390625 Z M 9.1875 -4.390625 "/></g></g></g><g fill="#000000" fill-opacity="1"><g transform="translate(53.302808, 307.146981)"><g><path d="M 6.125 -8.90625 C 6.445312 -8.90625 6.71875 -8.878906 6.9375 -8.828125 L 6.75 -6.59375 C 6.5625 -6.644531 6.328125 -6.671875 6.046875 -6.671875 C 5.285156 -6.671875 4.691406 -6.472656 4.265625 -6.078125 C 3.847656 -5.691406 3.640625 -5.148438 3.640625 -4.453125 L 3.640625 0 L 1.25 0 L 1.25 -8.734375 L 3.0625 -8.734375 L 3.40625 -7.265625 L 3.53125 -7.265625 C 3.800781 -7.753906 4.164062 -8.148438 4.625 -8.453125 C 5.082031 -8.753906 5.582031 -8.90625 6.125 -8.90625 Z M 6.125 -8.90625 "/></g></g></g><g fill="#000000" fill-opacity="1"><g transform="translate(60.566658, 307.146981)"><g><path d="M 6.125 -8.90625 C 6.445312 -8.90625 6.71875 -8.878906 6.9375 -8.828125 L 6.75 -6.59375 C 6.5625 -6.644531 6.328125 -6.671875 6.046875 -6.671875 C 5.285156 -6.671875 4.691406 -6.472656 4.265625 -6.078125 C 3.847656 -5.691406 3.640625 -5.148438 3.640625 -4.453125 L 3.640625 0 L 1.25 0 L 1.25 -8.734375 L 3.0625 -8.734375 L 3.40625 -7.265625 L 3.53125 -7.265625 C 3.800781 -7.753906 4.164062 -8.148438 4.625 -8.453125 C 5.082031 -8.753906 5.582031 -8.90625 6.125 -8.90625 Z M 6.125 -8.90625 "/></g></g></g><g fill="#000000" fill-opacity="1"><g transform="translate(67.830509, 307.146981)"><g><path d="M 0 -8.734375 L 2.609375 -8.734375 L 4.265625 -3.828125 C 4.398438 -3.398438 4.492188 -2.894531 4.546875 -2.3125 L 4.59375 -2.3125 C 4.65625 -2.84375 4.769531 -3.347656 4.9375 -3.828125 L 6.546875 -8.734375 L 9.109375 -8.734375 L 5.40625 1.125 C 5.070312 2.03125 4.585938 2.707031 3.953125 3.15625 C 3.328125 3.613281 2.597656 3.84375 1.765625 3.84375 C 1.347656 3.84375 0.941406 3.800781 0.546875 3.71875 L 0.546875 1.828125 C 0.835938 1.890625 1.148438 1.921875 1.484375 1.921875 C 1.910156 1.921875 2.28125 1.789062 2.59375 1.53125 C 2.90625 1.28125 3.148438 0.894531 3.328125 0.375 L 3.46875 -0.0625 Z M 0 -8.734375 "/></g></g></g><g fill="#000000" fill-opacity="1"><g transform="translate(76.929854, 307.146981)"><g><path d="M 3.59375 -1.6875 C 3.320312 -0.632812 2.863281 0.613281 2.21875 2.0625 L 0.5 2.0625 C 0.832031 0.675781 1.09375 -0.628906 1.28125 -1.859375 L 3.46875 -1.859375 Z M 3.59375 -1.6875 "/></g></g></g><g fill="#000000" fill-opacity="1"><g transform="translate(81.569346, 307.146981)"><g/></g></g><g fill="#000000" fill-opacity="1"><g transform="translate(85.724581, 307.146981)"><g><path d="M 8.4375 0 L 7.765625 -3.0625 L 6.859375 -6.921875 L 6.796875 -6.921875 L 5.203125 0 L 2.640625 0 L 0.15625 -8.734375 L 2.53125 -8.734375 L 3.546875 -4.875 C 3.703125 -4.175781 3.863281 -3.21875 4.03125 -2 L 4.078125 -2 C 4.097656 -2.394531 4.191406 -3.023438 4.359375 -3.890625 L 4.484375 -4.546875 L 5.5625 -8.734375 L 8.1875 -8.734375 L 9.203125 -4.546875 C 9.222656 -4.429688 9.253906 -4.257812 9.296875 -4.03125 C 9.347656 -3.8125 9.394531 -3.578125 9.4375 -3.328125 C 9.476562 -3.078125 9.515625 -2.828125 9.546875 -2.578125 C 9.578125 -2.335938 9.597656 -2.144531 9.609375 -2 L 9.65625 -2 C 9.695312 -2.375 9.773438 -2.890625 9.890625 -3.546875 C 10.015625 -4.203125 10.101562 -4.644531 10.15625 -4.875 L 11.203125 -8.734375 L 13.546875 -8.734375 L 11.03125 0 Z M 8.4375 0 "/></g></g></g><g fill="#000000" fill-opacity="1"><g transform="translate(99.416555, 307.146981)"><g><path d="M 4.875 -7.203125 C 4.363281 -7.203125 3.960938 -7.039062 3.671875 -6.71875 C 3.390625 -6.40625 3.226562 -5.953125 3.1875 -5.359375 L 6.53125 -5.359375 C 6.519531 -5.953125 6.363281 -6.40625 6.0625 -6.71875 C 5.769531 -7.039062 5.375 -7.203125 4.875 -7.203125 Z M 5.203125 0.15625 C 3.796875 0.15625 2.695312 -0.226562 1.90625 -1 C 1.113281 -1.78125 0.71875 -2.882812 0.71875 -4.3125 C 0.71875 -5.769531 1.082031 -6.898438 1.8125 -7.703125 C 2.550781 -8.503906 3.566406 -8.90625 4.859375 -8.90625 C 6.085938 -8.90625 7.046875 -8.550781 7.734375 -7.84375 C 8.421875 -7.144531 8.765625 -6.175781 8.765625 -4.9375 L 8.765625 -3.78125 L 3.140625 -3.78125 C 3.160156 -3.101562 3.359375 -2.570312 3.734375 -2.1875 C 4.109375 -1.8125 4.632812 -1.625 5.3125 -1.625 C 5.84375 -1.625 6.34375 -1.675781 6.8125 -1.78125 C 7.28125 -1.894531 7.769531 -2.070312 8.28125 -2.3125 L 8.28125 -0.46875 C 7.863281 -0.257812 7.414062 -0.101562 6.9375 0 C 6.46875 0.101562 5.890625 0.15625 5.203125 0.15625 Z M 5.203125 0.15625 "/></g></g></g><g fill="#000000" fill-opacity="1"><g transform="translate(108.867371, 307.146981)"><g/></g></g><g fill="#000000" fill-opacity="1"><g transform="translate(113.022606, 307.146981)"><g><path d="M 4.796875 0.15625 C 2.078125 0.15625 0.71875 -1.335938 0.71875 -4.328125 C 0.71875 -5.804688 1.085938 -6.9375 1.828125 -7.71875 C 2.566406 -8.507812 3.628906 -8.90625 5.015625 -8.90625 C 6.023438 -8.90625 6.929688 -8.707031 7.734375 -8.3125 L 7.03125 -6.46875 C 6.65625 -6.613281 6.304688 -6.734375 5.984375 -6.828125 C 5.660156 -6.929688 5.335938 -6.984375 5.015625 -6.984375 C 3.773438 -6.984375 3.15625 -6.101562 3.15625 -4.34375 C 3.15625 -2.632812 3.773438 -1.78125 5.015625 -1.78125 C 5.472656 -1.78125 5.894531 -1.835938 6.28125 -1.953125 C 6.675781 -2.078125 7.066406 -2.269531 7.453125 -2.53125 L 7.453125 -0.5 C 7.066406 -0.25 6.675781 -0.078125 6.28125 0.015625 C 5.894531 0.109375 5.398438 0.15625 4.796875 0.15625 Z M 4.796875 0.15625 "/></g></g></g><g fill="#000000" fill-opacity="1"><g transform="translate(121.247166, 307.146981)"><g><path d="M 3.15625 -4.390625 C 3.15625 -3.523438 3.296875 -2.867188 3.578125 -2.421875 C 3.859375 -1.984375 4.320312 -1.765625 4.96875 -1.765625 C 5.601562 -1.765625 6.054688 -1.984375 6.328125 -2.421875 C 6.609375 -2.859375 6.75 -3.515625 6.75 -4.390625 C 6.75 -5.253906 6.609375 -5.898438 6.328125 -6.328125 C 6.046875 -6.765625 5.585938 -6.984375 4.953125 -6.984375 C 4.316406 -6.984375 3.859375 -6.765625 3.578125 -6.328125 C 3.296875 -5.898438 3.15625 -5.253906 3.15625 -4.390625 Z M 9.1875 -4.390625 C 9.1875 -2.960938 8.8125 -1.847656 8.0625 -1.046875 C 7.3125 -0.242188 6.269531 0.15625 4.9375 0.15625 C 4.09375 0.15625 3.347656 -0.0234375 2.703125 -0.390625 C 2.066406 -0.765625 1.578125 -1.296875 1.234375 -1.984375 C 0.890625 -2.671875 0.71875 -3.472656 0.71875 -4.390625 C 0.71875 -5.816406 1.085938 -6.925781 1.828125 -7.71875 C 2.578125 -8.507812 3.628906 -8.90625 4.984375 -8.90625 C 5.816406 -8.90625 6.550781 -8.722656 7.1875 -8.359375 C 7.832031 -7.992188 8.328125 -7.46875 8.671875 -6.78125 C 9.015625 -6.101562 9.1875 -5.304688 9.1875 -4.390625 Z M 9.1875 -4.390625 "/></g></g></g><g fill="#000000" fill-opacity="1"><g transform="translate(131.150996, 307.146981)"><g><path d="M 7.4375 0 L 7.125 -1.125 L 7 -1.125 C 6.738281 -0.71875 6.375 -0.398438 5.90625 -0.171875 C 5.4375 0.046875 4.90625 0.15625 4.3125 0.15625 C 3.28125 0.15625 2.503906 -0.117188 1.984375 -0.671875 C 1.460938 -1.222656 1.203125 -2.015625 1.203125 -3.046875 L 1.203125 -8.734375 L 3.59375 -8.734375 L 3.59375 -3.640625 C 3.59375 -3.003906 3.703125 -2.53125 3.921875 -2.21875 C 4.148438 -1.90625 4.507812 -1.75 5 -1.75 C 5.664062 -1.75 6.144531 -1.96875 6.4375 -2.40625 C 6.738281 -2.851562 6.890625 -3.59375 6.890625 -4.625 L 6.890625 -8.734375 L 9.265625 -8.734375 L 9.265625 0 Z M 7.4375 0 "/></g></g></g><g fill="#000000" fill-opacity="1"><g transform="translate(141.664053, 307.146981)"><g><path d="M 3.640625 0 L 1.25 0 L 1.25 -12.15625 L 3.640625 -12.15625 Z M 3.640625 0 "/></g></g></g><g fill="#000000" fill-opacity="1"><g transform="translate(146.545679, 307.146981)"><g><path d="M 4.015625 0.15625 C 2.992188 0.15625 2.1875 -0.238281 1.59375 -1.03125 C 1.007812 -1.832031 0.71875 -2.941406 0.71875 -4.359375 C 0.71875 -5.785156 1.015625 -6.898438 1.609375 -7.703125 C 2.210938 -8.503906 3.035156 -8.90625 4.078125 -8.90625 C 5.179688 -8.90625 6.019531 -8.476562 6.59375 -7.625 L 6.671875 -7.625 C 6.554688 -8.269531 6.5 -8.847656 6.5 -9.359375 L 6.5 -12.15625 L 8.890625 -12.15625 L 8.890625 0 L 7.0625 0 L 6.59375 -1.140625 L 6.5 -1.140625 C 5.957031 -0.273438 5.128906 0.15625 4.015625 0.15625 Z M 4.859375 -1.75 C 5.460938 -1.75 5.90625 -1.925781 6.1875 -2.28125 C 6.476562 -2.632812 6.632812 -3.234375 6.65625 -4.078125 L 6.65625 -4.34375 C 6.65625 -5.28125 6.507812 -5.953125 6.21875 -6.359375 C 5.9375 -6.765625 5.46875 -6.96875 4.8125 -6.96875 C 4.28125 -6.96875 3.867188 -6.738281 3.578125 -6.28125 C 3.285156 -5.832031 3.140625 -5.179688 3.140625 -4.328125 C 3.140625 -3.460938 3.285156 -2.816406 3.578125 -2.390625 C 3.878906 -1.960938 4.304688 -1.75 4.859375 -1.75 Z M 4.859375 -1.75 "/></g></g></g><g fill="#000000" fill-opacity="1"><g transform="translate(156.668207, 307.146981)"><g><path d="M 9.3125 0 L 6.9375 0 L 6.9375 -5.109375 C 6.9375 -5.734375 6.820312 -6.203125 6.59375 -6.515625 C 6.375 -6.835938 6.019531 -7 5.53125 -7 C 4.863281 -7 4.378906 -6.773438 4.078125 -6.328125 C 3.785156 -5.878906 3.640625 -5.140625 3.640625 -4.109375 L 3.640625 0 L 1.25 0 L 1.25 -8.734375 L 3.078125 -8.734375 L 3.390625 -7.625 L 3.53125 -7.625 C 3.789062 -8.039062 4.15625 -8.359375 4.625 -8.578125 C 5.09375 -8.796875 5.625 -8.90625 6.21875 -8.90625 C 7.226562 -8.90625 7.992188 -8.628906 8.515625 -8.078125 C 9.046875 -7.523438 9.3125 -6.734375 9.3125 -5.703125 Z M 9.3125 0 "/></g></g></g><g fill="#000000" fill-opacity="1"><g transform="translate(167.181264, 307.146981)"><g><path d="M 3.171875 -11.421875 L 3.28125 -11.25 C 3.019531 -10.226562 2.5625 -8.984375 1.90625 -7.515625 L 0.203125 -7.515625 C 0.554688 -9.054688 0.816406 -10.359375 0.984375 -11.421875 Z M 3.171875 -11.421875 "/></g></g></g><g fill="#000000" fill-opacity="1"><g transform="translate(170.649166, 307.146981)"><g><path d="M 4.9375 -1.75 C 5.351562 -1.75 5.851562 -1.835938 6.4375 -2.015625 L 6.4375 -0.25 C 5.84375 0.0195312 5.113281 0.15625 4.25 0.15625 C 3.289062 0.15625 2.59375 -0.0820312 2.15625 -0.5625 C 1.726562 -1.050781 1.515625 -1.773438 1.515625 -2.734375 L 1.515625 -6.953125 L 0.375 -6.953125 L 0.375 -7.953125 L 1.6875 -8.75 L 2.375 -10.59375 L 3.890625 -10.59375 L 3.890625 -8.734375 L 6.34375 -8.734375 L 6.34375 -6.953125 L 3.890625 -6.953125 L 3.890625 -2.734375 C 3.890625 -2.398438 3.984375 -2.148438 4.171875 -1.984375 C 4.367188 -1.828125 4.625 -1.75 4.9375 -1.75 Z M 4.9375 -1.75 "/></g></g></g><g fill="#000000" fill-opacity="1"><g transform="translate(177.592789, 307.146981)"><g/></g></g><g fill="#000000" fill-opacity="1"><g transform="translate(181.748024, 307.146981)"><g><path d="M 6.078125 -6.953125 L 4.015625 -6.953125 L 4.015625 0 L 1.640625 0 L 1.640625 -6.953125 L 0.328125 -6.953125 L 0.328125 -8.09375 L 1.640625 -8.734375 L 1.640625 -9.375 C 1.640625 -10.375 1.882812 -11.101562 2.375 -11.5625 C 2.863281 -12.019531 3.644531 -12.25 4.71875 -12.25 C 5.539062 -12.25 6.273438 -12.125 6.921875 -11.875 L 6.3125 -10.125 C 5.832031 -10.28125 5.390625 -10.359375 4.984375 -10.359375 C 4.640625 -10.359375 4.390625 -10.253906 4.234375 -10.046875 C 4.085938 -9.847656 4.015625 -9.59375 4.015625 -9.28125 L 4.015625 -8.734375 L 6.078125 -8.734375 Z M 6.078125 -6.953125 "/></g></g></g><g fill="#000000" fill-opacity="1"><g transform="translate(187.941829, 307.146981)"><g><path d="M 1.15625 -11 C 1.15625 -11.769531 1.585938 -12.15625 2.453125 -12.15625 C 3.316406 -12.15625 3.75 -11.769531 3.75 -11 C 3.75 -10.625 3.640625 -10.332031 3.421875 -10.125 C 3.203125 -9.925781 2.878906 -9.828125 2.453125 -9.828125 C 1.585938 -9.828125 1.15625 -10.21875 1.15625 -11 Z M 3.640625 0 L 1.25 0 L 1.25 -8.734375 L 3.640625 -8.734375 Z M 3.640625 0 "/></g></g></g><g fill="#000000" fill-opacity="1"><g transform="translate(192.823455, 307.146981)"><g><path d="M 9.3125 0 L 6.9375 0 L 6.9375 -5.109375 C 6.9375 -5.734375 6.820312 -6.203125 6.59375 -6.515625 C 6.375 -6.835938 6.019531 -7 5.53125 -7 C 4.863281 -7 4.378906 -6.773438 4.078125 -6.328125 C 3.785156 -5.878906 3.640625 -5.140625 3.640625 -4.109375 L 3.640625 0 L 1.25 0 L 1.25 -8.734375 L 3.078125 -8.734375 L 3.390625 -7.625 L 3.53125 -7.625 C 3.789062 -8.039062 4.15625 -8.359375 4.625 -8.578125 C 5.09375 -8.796875 5.625 -8.90625 6.21875 -8.90625 C 7.226562 -8.90625 7.992188 -8.628906 8.515625 -8.078125 C 9.046875 -7.523438 9.3125 -6.734375 9.3125 -5.703125 Z M 9.3125 0 "/></g></g></g><g fill="#000000" fill-opacity="1"><g transform="translate(203.336512, 307.146981)"><g><path d="M 4.015625 0.15625 C 2.992188 0.15625 2.1875 -0.238281 1.59375 -1.03125 C 1.007812 -1.832031 0.71875 -2.941406 0.71875 -4.359375 C 0.71875 -5.785156 1.015625 -6.898438 1.609375 -7.703125 C 2.210938 -8.503906 3.035156 -8.90625 4.078125 -8.90625 C 5.179688 -8.90625 6.019531 -8.476562 6.59375 -7.625 L 6.671875 -7.625 C 6.554688 -8.269531 6.5 -8.847656 6.5 -9.359375 L 6.5 -12.15625 L 8.890625 -12.15625 L 8.890625 0 L 7.0625 0 L 6.59375 -1.140625 L 6.5 -1.140625 C 5.957031 -0.273438 5.128906 0.15625 4.015625 0.15625 Z M 4.859375 -1.75 C 5.460938 -1.75 5.90625 -1.925781 6.1875 -2.28125 C 6.476562 -2.632812 6.632812 -3.234375 6.65625 -4.078125 L 6.65625 -4.34375 C 6.65625 -5.28125 6.507812 -5.953125 6.21875 -6.359375 C 5.9375 -6.765625 5.46875 -6.96875 4.8125 -6.96875 C 4.28125 -6.96875 3.867188 -6.738281 3.578125 -6.28125 C 3.285156 -5.832031 3.140625 -5.179688 3.140625 -4.328125 C 3.140625 -3.460938 3.285156 -2.816406 3.578125 -2.390625 C 3.878906 -1.960938 4.304688 -1.75 4.859375 -1.75 Z M 4.859375 -1.75 "/></g></g></g><g fill="#000000" fill-opacity="1"><g transform="translate(213.459039, 307.146981)"><g/></g></g><g fill="#000000" fill-opacity="1"><g transform="translate(217.614274, 307.146981)"><g><path d="M 8.4375 0 L 7.765625 -3.0625 L 6.859375 -6.921875 L 6.796875 -6.921875 L 5.203125 0 L 2.640625 0 L 0.15625 -8.734375 L 2.53125 -8.734375 L 3.546875 -4.875 C 3.703125 -4.175781 3.863281 -3.21875 4.03125 -2 L 4.078125 -2 C 4.097656 -2.394531 4.191406 -3.023438 4.359375 -3.890625 L 4.484375 -4.546875 L 5.5625 -8.734375 L 8.1875 -8.734375 L 9.203125 -4.546875 C 9.222656 -4.429688 9.253906 -4.257812 9.296875 -4.03125 C 9.347656 -3.8125 9.394531 -3.578125 9.4375 -3.328125 C 9.476562 -3.078125 9.515625 -2.828125 9.546875 -2.578125 C 9.578125 -2.335938 9.597656 -2.144531 9.609375 -2 L 9.65625 -2 C 9.695312 -2.375 9.773438 -2.890625 9.890625 -3.546875 C 10.015625 -4.203125 10.101562 -4.644531 10.15625 -4.875 L 11.203125 -8.734375 L 13.546875 -8.734375 L 11.03125 0 Z M 8.4375 0 "/></g></g></g><g fill="#000000" fill-opacity="1"><g transform="translate(231.306237, 307.146981)"><g><path d="M 9.3125 0 L 6.9375 0 L 6.9375 -5.109375 C 6.9375 -6.367188 6.46875 -7 5.53125 -7 C 4.863281 -7 4.378906 -6.769531 4.078125 -6.3125 C 3.785156 -5.863281 3.640625 -5.128906 3.640625 -4.109375 L 3.640625 0 L 1.25 0 L 1.25 -12.15625 L 3.640625 -12.15625 L 3.640625 -9.6875 C 3.640625 -9.488281 3.617188 -9.035156 3.578125 -8.328125 L 3.53125 -7.625 L 3.65625 -7.625 C 4.1875 -8.476562 5.03125 -8.90625 6.1875 -8.90625 C 7.207031 -8.90625 7.984375 -8.628906 8.515625 -8.078125 C 9.046875 -7.523438 9.3125 -6.734375 9.3125 -5.703125 Z M 9.3125 0 "/></g></g></g><g fill="#000000" fill-opacity="1"><g transform="translate(241.819282, 307.146981)"><g><path d="M 6.796875 0 L 6.34375 -1.1875 L 6.28125 -1.1875 C 5.875 -0.6875 5.457031 -0.335938 5.03125 -0.140625 C 4.613281 0.0546875 4.0625 0.15625 3.375 0.15625 C 2.539062 0.15625 1.878906 -0.0820312 1.390625 -0.5625 C 0.910156 -1.039062 0.671875 -1.722656 0.671875 -2.609375 C 0.671875 -3.535156 0.992188 -4.21875 1.640625 -4.65625 C 2.296875 -5.101562 3.273438 -5.347656 4.578125 -5.390625 L 6.09375 -5.4375 L 6.09375 -5.828125 C 6.09375 -6.710938 5.640625 -7.15625 4.734375 -7.15625 C 4.035156 -7.15625 3.21875 -6.941406 2.28125 -6.515625 L 1.484375 -8.125 C 2.492188 -8.65625 3.609375 -8.921875 4.828125 -8.921875 C 6.003906 -8.921875 6.90625 -8.664062 7.53125 -8.15625 C 8.15625 -7.644531 8.46875 -6.867188 8.46875 -5.828125 L 8.46875 0 Z M 6.09375 -4.046875 L 5.171875 -4.015625 C 4.484375 -3.992188 3.96875 -3.867188 3.625 -3.640625 C 3.289062 -3.410156 3.125 -3.0625 3.125 -2.59375 C 3.125 -1.925781 3.507812 -1.59375 4.28125 -1.59375 C 4.832031 -1.59375 5.269531 -1.75 5.59375 -2.0625 C 5.925781 -2.382812 6.09375 -2.804688 6.09375 -3.328125 Z M 6.09375 -4.046875 "/></g></g></g><g fill="#000000" fill-opacity="1"><g transform="translate(251.480979, 307.146981)"><g><path d="M 4.9375 -1.75 C 5.351562 -1.75 5.851562 -1.835938 6.4375 -2.015625 L 6.4375 -0.25 C 5.84375 0.0195312 5.113281 0.15625 4.25 0.15625 C 3.289062 0.15625 2.59375 -0.0820312 2.15625 -0.5625 C 1.726562 -1.050781 1.515625 -1.773438 1.515625 -2.734375 L 1.515625 -6.953125 L 0.375 -6.953125 L 0.375 -7.953125 L 1.6875 -8.75 L 2.375 -10.59375 L 3.890625 -10.59375 L 3.890625 -8.734375 L 6.34375 -8.734375 L 6.34375 -6.953125 L 3.890625 -6.953125 L 3.890625 -2.734375 C 3.890625 -2.398438 3.984375 -2.148438 4.171875 -1.984375 C 4.367188 -1.828125 4.625 -1.75 4.9375 -1.75 Z M 4.9375 -1.75 "/></g></g></g><g fill="#000000" fill-opacity="1"><g transform="translate(258.424612, 307.146981)"><g/></g></g><g fill="#000000" fill-opacity="1"><g transform="translate(262.579847, 307.146981)"><g><path d="M 0 -8.734375 L 2.609375 -8.734375 L 4.265625 -3.828125 C 4.398438 -3.398438 4.492188 -2.894531 4.546875 -2.3125 L 4.59375 -2.3125 C 4.65625 -2.84375 4.769531 -3.347656 4.9375 -3.828125 L 6.546875 -8.734375 L 9.109375 -8.734375 L 5.40625 1.125 C 5.070312 2.03125 4.585938 2.707031 3.953125 3.15625 C 3.328125 3.613281 2.597656 3.84375 1.765625 3.84375 C 1.347656 3.84375 0.941406 3.800781 0.546875 3.71875 L 0.546875 1.828125 C 0.835938 1.890625 1.148438 1.921875 1.484375 1.921875 C 1.910156 1.921875 2.28125 1.789062 2.59375 1.53125 C 2.90625 1.28125 3.148438 0.894531 3.328125 0.375 L 3.46875 -0.0625 Z M 0 -8.734375 "/></g></g></g><g fill="#000000" fill-opacity="1"><g transform="translate(271.679204, 307.146981)"><g><path d="M 3.15625 -4.390625 C 3.15625 -3.523438 3.296875 -2.867188 3.578125 -2.421875 C 3.859375 -1.984375 4.320312 -1.765625 4.96875 -1.765625 C 5.601562 -1.765625 6.054688 -1.984375 6.328125 -2.421875 C 6.609375 -2.859375 6.75 -3.515625 6.75 -4.390625 C 6.75 -5.253906 6.609375 -5.898438 6.328125 -6.328125 C 6.046875 -6.765625 5.585938 -6.984375 4.953125 -6.984375 C 4.316406 -6.984375 3.859375 -6.765625 3.578125 -6.328125 C 3.296875 -5.898438 3.15625 -5.253906 3.15625 -4.390625 Z M 9.1875 -4.390625 C 9.1875 -2.960938 8.8125 -1.847656 8.0625 -1.046875 C 7.3125 -0.242188 6.269531 0.15625 4.9375 0.15625 C 4.09375 0.15625 3.347656 -0.0234375 2.703125 -0.390625 C 2.066406 -0.765625 1.578125 -1.296875 1.234375 -1.984375 C 0.890625 -2.671875 0.71875 -3.472656 0.71875 -4.390625 C 0.71875 -5.816406 1.085938 -6.925781 1.828125 -7.71875 C 2.578125 -8.507812 3.628906 -8.90625 4.984375 -8.90625 C 5.816406 -8.90625 6.550781 -8.722656 7.1875 -8.359375 C 7.832031 -7.992188 8.328125 -7.46875 8.671875 -6.78125 C 9.015625 -6.101562 9.1875 -5.304688 9.1875 -4.390625 Z M 9.1875 -4.390625 "/></g></g></g><g fill="#000000" fill-opacity="1"><g transform="translate(281.583035, 307.146981)"><g><path d="M 7.4375 0 L 7.125 -1.125 L 7 -1.125 C 6.738281 -0.71875 6.375 -0.398438 5.90625 -0.171875 C 5.4375 0.046875 4.90625 0.15625 4.3125 0.15625 C 3.28125 0.15625 2.503906 -0.117188 1.984375 -0.671875 C 1.460938 -1.222656 1.203125 -2.015625 1.203125 -3.046875 L 1.203125 -8.734375 L 3.59375 -8.734375 L 3.59375 -3.640625 C 3.59375 -3.003906 3.703125 -2.53125 3.921875 -2.21875 C 4.148438 -1.90625 4.507812 -1.75 5 -1.75 C 5.664062 -1.75 6.144531 -1.96875 6.4375 -2.40625 C 6.738281 -2.851562 6.890625 -3.59375 6.890625 -4.625 L 6.890625 -8.734375 L 9.265625 -8.734375 L 9.265625 0 Z M 7.4375 0 "/></g></g></g><g fill="#000000" fill-opacity="1"><g transform="translate(292.096104, 307.146981)"><g/></g></g><g fill="#000000" fill-opacity="1"><g transform="translate(296.251339, 307.146981)"><g><path d="M 6.796875 0 L 6.34375 -1.1875 L 6.28125 -1.1875 C 5.875 -0.6875 5.457031 -0.335938 5.03125 -0.140625 C 4.613281 0.0546875 4.0625 0.15625 3.375 0.15625 C 2.539062 0.15625 1.878906 -0.0820312 1.390625 -0.5625 C 0.910156 -1.039062 0.671875 -1.722656 0.671875 -2.609375 C 0.671875 -3.535156 0.992188 -4.21875 1.640625 -4.65625 C 2.296875 -5.101562 3.273438 -5.347656 4.578125 -5.390625 L 6.09375 -5.4375 L 6.09375 -5.828125 C 6.09375 -6.710938 5.640625 -7.15625 4.734375 -7.15625 C 4.035156 -7.15625 3.21875 -6.941406 2.28125 -6.515625 L 1.484375 -8.125 C 2.492188 -8.65625 3.609375 -8.921875 4.828125 -8.921875 C 6.003906 -8.921875 6.90625 -8.664062 7.53125 -8.15625 C 8.15625 -7.644531 8.46875 -6.867188 8.46875 -5.828125 L 8.46875 0 Z M 6.09375 -4.046875 L 5.171875 -4.015625 C 4.484375 -3.992188 3.96875 -3.867188 3.625 -3.640625 C 3.289062 -3.410156 3.125 -3.0625 3.125 -2.59375 C 3.125 -1.925781 3.507812 -1.59375 4.28125 -1.59375 C 4.832031 -1.59375 5.269531 -1.75 5.59375 -2.0625 C 5.925781 -2.382812 6.09375 -2.804688 6.09375 -3.328125 Z M 6.09375 -4.046875 "/></g></g></g><g fill="#000000" fill-opacity="1"><g transform="translate(305.913058, 307.146981)"><g><path d="M 6.125 -8.90625 C 6.445312 -8.90625 6.71875 -8.878906 6.9375 -8.828125 L 6.75 -6.59375 C 6.5625 -6.644531 6.328125 -6.671875 6.046875 -6.671875 C 5.285156 -6.671875 4.691406 -6.472656 4.265625 -6.078125 C 3.847656 -5.691406 3.640625 -5.148438 3.640625 -4.453125 L 3.640625 0 L 1.25 0 L 1.25 -8.734375 L 3.0625 -8.734375 L 3.40625 -7.265625 L 3.53125 -7.265625 C 3.800781 -7.753906 4.164062 -8.148438 4.625 -8.453125 C 5.082031 -8.753906 5.582031 -8.90625 6.125 -8.90625 Z M 6.125 -8.90625 "/></g></g></g><g fill="#000000" fill-opacity="1"><g transform="translate(313.176898, 307.146981)"><g><path d="M 4.875 -7.203125 C 4.363281 -7.203125 3.960938 -7.039062 3.671875 -6.71875 C 3.390625 -6.40625 3.226562 -5.953125 3.1875 -5.359375 L 6.53125 -5.359375 C 6.519531 -5.953125 6.363281 -6.40625 6.0625 -6.71875 C 5.769531 -7.039062 5.375 -7.203125 4.875 -7.203125 Z M 5.203125 0.15625 C 3.796875 0.15625 2.695312 -0.226562 1.90625 -1 C 1.113281 -1.78125 0.71875 -2.882812 0.71875 -4.3125 C 0.71875 -5.769531 1.082031 -6.898438 1.8125 -7.703125 C 2.550781 -8.503906 3.566406 -8.90625 4.859375 -8.90625 C 6.085938 -8.90625 7.046875 -8.550781 7.734375 -7.84375 C 8.421875 -7.144531 8.765625 -6.175781 8.765625 -4.9375 L 8.765625 -3.78125 L 3.140625 -3.78125 C 3.160156 -3.101562 3.359375 -2.570312 3.734375 -2.1875 C 4.109375 -1.8125 4.632812 -1.625 5.3125 -1.625 C 5.84375 -1.625 6.34375 -1.675781 6.8125 -1.78125 C 7.28125 -1.894531 7.769531 -2.070312 8.28125 -2.3125 L 8.28125 -0.46875 C 7.863281 -0.257812 7.414062 -0.101562 6.9375 0 C 6.46875 0.101562 5.890625 0.15625 5.203125 0.15625 Z M 5.203125 0.15625 "/></g></g></g><g fill="#000000" fill-opacity="1"><g transform="translate(133.04956, 328.896979)"><g><path d="M 3.640625 0 L 1.25 0 L 1.25 -12.15625 L 3.640625 -12.15625 Z M 3.640625 0 "/></g></g></g><g fill="#000000" fill-opacity="1"><g transform="translate(137.931186, 328.896979)"><g><path d="M 3.15625 -4.390625 C 3.15625 -3.523438 3.296875 -2.867188 3.578125 -2.421875 C 3.859375 -1.984375 4.320312 -1.765625 4.96875 -1.765625 C 5.601562 -1.765625 6.054688 -1.984375 6.328125 -2.421875 C 6.609375 -2.859375 6.75 -3.515625 6.75 -4.390625 C 6.75 -5.253906 6.609375 -5.898438 6.328125 -6.328125 C 6.046875 -6.765625 5.585938 -6.984375 4.953125 -6.984375 C 4.316406 -6.984375 3.859375 -6.765625 3.578125 -6.328125 C 3.296875 -5.898438 3.15625 -5.253906 3.15625 -4.390625 Z M 9.1875 -4.390625 C 9.1875 -2.960938 8.8125 -1.847656 8.0625 -1.046875 C 7.3125 -0.242188 6.269531 0.15625 4.9375 0.15625 C 4.09375 0.15625 3.347656 -0.0234375 2.703125 -0.390625 C 2.066406 -0.765625 1.578125 -1.296875 1.234375 -1.984375 C 0.890625 -2.671875 0.71875 -3.472656 0.71875 -4.390625 C 0.71875 -5.816406 1.085938 -6.925781 1.828125 -7.71875 C 2.578125 -8.507812 3.628906 -8.90625 4.984375 -8.90625 C 5.816406 -8.90625 6.550781 -8.722656 7.1875 -8.359375 C 7.832031 -7.992188 8.328125 -7.46875 8.671875 -6.78125 C 9.015625 -6.101562 9.1875 -5.304688 9.1875 -4.390625 Z M 9.1875 -4.390625 "/></g></g></g><g fill="#000000" fill-opacity="1"><g transform="translate(147.835016, 328.896979)"><g><path d="M 3.15625 -4.390625 C 3.15625 -3.523438 3.296875 -2.867188 3.578125 -2.421875 C 3.859375 -1.984375 4.320312 -1.765625 4.96875 -1.765625 C 5.601562 -1.765625 6.054688 -1.984375 6.328125 -2.421875 C 6.609375 -2.859375 6.75 -3.515625 6.75 -4.390625 C 6.75 -5.253906 6.609375 -5.898438 6.328125 -6.328125 C 6.046875 -6.765625 5.585938 -6.984375 4.953125 -6.984375 C 4.316406 -6.984375 3.859375 -6.765625 3.578125 -6.328125 C 3.296875 -5.898438 3.15625 -5.253906 3.15625 -4.390625 Z M 9.1875 -4.390625 C 9.1875 -2.960938 8.8125 -1.847656 8.0625 -1.046875 C 7.3125 -0.242188 6.269531 0.15625 4.9375 0.15625 C 4.09375 0.15625 3.347656 -0.0234375 2.703125 -0.390625 C 2.066406 -0.765625 1.578125 -1.296875 1.234375 -1.984375 C 0.890625 -2.671875 0.71875 -3.472656 0.71875 -4.390625 C 0.71875 -5.816406 1.085938 -6.925781 1.828125 -7.71875 C 2.578125 -8.507812 3.628906 -8.90625 4.984375 -8.90625 C 5.816406 -8.90625 6.550781 -8.722656 7.1875 -8.359375 C 7.832031 -7.992188 8.328125 -7.46875 8.671875 -6.78125 C 9.015625 -6.101562 9.1875 -5.304688 9.1875 -4.390625 Z M 9.1875 -4.390625 "/></g></g></g><g fill="#000000" fill-opacity="1"><g transform="translate(157.738847, 328.896979)"><g><path d="M 3.546875 -4.75 L 4.578125 -6.078125 L 7.03125 -8.734375 L 9.71875 -8.734375 L 6.25 -4.953125 L 9.921875 0 L 7.171875 0 L 4.65625 -3.546875 L 3.640625 -2.71875 L 3.640625 0 L 1.25 0 L 1.25 -12.15625 L 3.640625 -12.15625 L 3.640625 -6.734375 L 3.515625 -4.75 Z M 3.546875 -4.75 "/></g></g></g><g fill="#000000" fill-opacity="1"><g transform="translate(167.658299, 328.896979)"><g><path d="M 1.15625 -11 C 1.15625 -11.769531 1.585938 -12.15625 2.453125 -12.15625 C 3.316406 -12.15625 3.75 -11.769531 3.75 -11 C 3.75 -10.625 3.640625 -10.332031 3.421875 -10.125 C 3.203125 -9.925781 2.878906 -9.828125 2.453125 -9.828125 C 1.585938 -9.828125 1.15625 -10.21875 1.15625 -11 Z M 3.640625 0 L 1.25 0 L 1.25 -8.734375 L 3.640625 -8.734375 Z M 3.640625 0 "/></g></g></g><g fill="#000000" fill-opacity="1"><g transform="translate(172.539925, 328.896979)"><g><path d="M 9.3125 0 L 6.9375 0 L 6.9375 -5.109375 C 6.9375 -5.734375 6.820312 -6.203125 6.59375 -6.515625 C 6.375 -6.835938 6.019531 -7 5.53125 -7 C 4.863281 -7 4.378906 -6.773438 4.078125 -6.328125 C 3.785156 -5.878906 3.640625 -5.140625 3.640625 -4.109375 L 3.640625 0 L 1.25 0 L 1.25 -8.734375 L 3.078125 -8.734375 L 3.390625 -7.625 L 3.53125 -7.625 C 3.789062 -8.039062 4.15625 -8.359375 4.625 -8.578125 C 5.09375 -8.796875 5.625 -8.90625 6.21875 -8.90625 C 7.226562 -8.90625 7.992188 -8.628906 8.515625 -8.078125 C 9.046875 -7.523438 9.3125 -6.734375 9.3125 -5.703125 Z M 9.3125 0 "/></g></g></g><g fill="#000000" fill-opacity="1"><g transform="translate(183.052982, 328.896979)"><g><path d="M 8.859375 -8.734375 L 8.859375 -7.53125 L 7.484375 -7.171875 C 7.734375 -6.785156 7.859375 -6.347656 7.859375 -5.859375 C 7.859375 -4.921875 7.53125 -4.191406 6.875 -3.671875 C 6.226562 -3.148438 5.320312 -2.890625 4.15625 -2.890625 L 3.734375 -2.90625 L 3.375 -2.953125 C 3.132812 -2.765625 3.015625 -2.554688 3.015625 -2.328125 C 3.015625 -1.984375 3.453125 -1.8125 4.328125 -1.8125 L 5.8125 -1.8125 C 6.769531 -1.8125 7.5 -1.601562 8 -1.1875 C 8.5 -0.78125 8.75 -0.175781 8.75 0.625 C 8.75 1.644531 8.320312 2.4375 7.46875 3 C 6.625 3.5625 5.40625 3.84375 3.8125 3.84375 C 2.59375 3.84375 1.660156 3.628906 1.015625 3.203125 C 0.367188 2.785156 0.046875 2.191406 0.046875 1.421875 C 0.046875 0.898438 0.207031 0.457031 0.53125 0.09375 C 0.863281 -0.257812 1.347656 -0.507812 1.984375 -0.65625 C 1.742188 -0.757812 1.53125 -0.929688 1.34375 -1.171875 C 1.164062 -1.410156 1.078125 -1.660156 1.078125 -1.921875 C 1.078125 -2.253906 1.171875 -2.53125 1.359375 -2.75 C 1.554688 -2.976562 1.835938 -3.195312 2.203125 -3.40625 C 1.742188 -3.601562 1.378906 -3.921875 1.109375 -4.359375 C 0.835938 -4.796875 0.703125 -5.3125 0.703125 -5.90625 C 0.703125 -6.863281 1.007812 -7.601562 1.625 -8.125 C 2.25 -8.644531 3.140625 -8.90625 4.296875 -8.90625 C 4.535156 -8.90625 4.820312 -8.878906 5.15625 -8.828125 C 5.5 -8.785156 5.71875 -8.753906 5.8125 -8.734375 Z M 2.109375 1.234375 C 2.109375 1.566406 2.265625 1.828125 2.578125 2.015625 C 2.898438 2.203125 3.34375 2.296875 3.90625 2.296875 C 4.757812 2.296875 5.425781 2.175781 5.90625 1.9375 C 6.394531 1.707031 6.640625 1.390625 6.640625 0.984375 C 6.640625 0.648438 6.492188 0.421875 6.203125 0.296875 C 5.921875 0.171875 5.484375 0.109375 4.890625 0.109375 L 3.65625 0.109375 C 3.21875 0.109375 2.847656 0.210938 2.546875 0.421875 C 2.253906 0.628906 2.109375 0.898438 2.109375 1.234375 Z M 2.984375 -5.875 C 2.984375 -5.40625 3.085938 -5.03125 3.296875 -4.75 C 3.515625 -4.476562 3.847656 -4.34375 4.296875 -4.34375 C 4.742188 -4.34375 5.070312 -4.476562 5.28125 -4.75 C 5.488281 -5.03125 5.59375 -5.40625 5.59375 -5.875 C 5.59375 -6.925781 5.160156 -7.453125 4.296875 -7.453125 C 3.421875 -7.453125 2.984375 -6.925781 2.984375 -5.875 Z M 2.984375 -5.875 "/></g></g></g><g fill="#000000" fill-opacity="1"><g transform="translate(192.089843, 328.896979)"><g/></g></g><g fill="#000000" fill-opacity="1"><g transform="translate(196.245078, 328.896979)"><g><path d="M 6.078125 -6.953125 L 4.015625 -6.953125 L 4.015625 0 L 1.640625 0 L 1.640625 -6.953125 L 0.328125 -6.953125 L 0.328125 -8.09375 L 1.640625 -8.734375 L 1.640625 -9.375 C 1.640625 -10.375 1.882812 -11.101562 2.375 -11.5625 C 2.863281 -12.019531 3.644531 -12.25 4.71875 -12.25 C 5.539062 -12.25 6.273438 -12.125 6.921875 -11.875 L 6.3125 -10.125 C 5.832031 -10.28125 5.390625 -10.359375 4.984375 -10.359375 C 4.640625 -10.359375 4.390625 -10.253906 4.234375 -10.046875 C 4.085938 -9.847656 4.015625 -9.59375 4.015625 -9.28125 L 4.015625 -8.734375 L 6.078125 -8.734375 Z M 6.078125 -6.953125 "/></g></g></g><g fill="#000000" fill-opacity="1"><g transform="translate(202.438883, 328.896979)"><g><path d="M 3.15625 -4.390625 C 3.15625 -3.523438 3.296875 -2.867188 3.578125 -2.421875 C 3.859375 -1.984375 4.320312 -1.765625 4.96875 -1.765625 C 5.601562 -1.765625 6.054688 -1.984375 6.328125 -2.421875 C 6.609375 -2.859375 6.75 -3.515625 6.75 -4.390625 C 6.75 -5.253906 6.609375 -5.898438 6.328125 -6.328125 C 6.046875 -6.765625 5.585938 -6.984375 4.953125 -6.984375 C 4.316406 -6.984375 3.859375 -6.765625 3.578125 -6.328125 C 3.296875 -5.898438 3.15625 -5.253906 3.15625 -4.390625 Z M 9.1875 -4.390625 C 9.1875 -2.960938 8.8125 -1.847656 8.0625 -1.046875 C 7.3125 -0.242188 6.269531 0.15625 4.9375 0.15625 C 4.09375 0.15625 3.347656 -0.0234375 2.703125 -0.390625 C 2.066406 -0.765625 1.578125 -1.296875 1.234375 -1.984375 C 0.890625 -2.671875 0.71875 -3.472656 0.71875 -4.390625 C 0.71875 -5.816406 1.085938 -6.925781 1.828125 -7.71875 C 2.578125 -8.507812 3.628906 -8.90625 4.984375 -8.90625 C 5.816406 -8.90625 6.550781 -8.722656 7.1875 -8.359375 C 7.832031 -7.992188 8.328125 -7.46875 8.671875 -6.78125 C 9.015625 -6.101562 9.1875 -5.304688 9.1875 -4.390625 Z M 9.1875 -4.390625 "/></g></g></g><g fill="#000000" fill-opacity="1"><g transform="translate(212.342714, 328.896979)"><g><path d="M 6.125 -8.90625 C 6.445312 -8.90625 6.71875 -8.878906 6.9375 -8.828125 L 6.75 -6.59375 C 6.5625 -6.644531 6.328125 -6.671875 6.046875 -6.671875 C 5.285156 -6.671875 4.691406 -6.472656 4.265625 -6.078125 C 3.847656 -5.691406 3.640625 -5.148438 3.640625 -4.453125 L 3.640625 0 L 1.25 0 L 1.25 -8.734375 L 3.0625 -8.734375 L 3.40625 -7.265625 L 3.53125 -7.265625 C 3.800781 -7.753906 4.164062 -8.148438 4.625 -8.453125 C 5.082031 -8.753906 5.582031 -8.90625 6.125 -8.90625 Z M 6.125 -8.90625 "/></g></g></g><g fill="#000000" fill-opacity="1"><g transform="translate(219.606565, 328.896979)"><g><path d="M 0.921875 -1.125 C 0.921875 -1.5625 1.035156 -1.890625 1.265625 -2.109375 C 1.503906 -2.335938 1.847656 -2.453125 2.296875 -2.453125 C 2.722656 -2.453125 3.054688 -2.335938 3.296875 -2.109375 C 3.535156 -1.878906 3.65625 -1.550781 3.65625 -1.125 C 3.65625 -0.707031 3.535156 -0.378906 3.296875 -0.140625 C 3.054688 0.0976562 2.722656 0.21875 2.296875 0.21875 C 1.859375 0.21875 1.519531 0.101562 1.28125 -0.125 C 1.039062 -0.363281 0.921875 -0.695312 0.921875 -1.125 Z M 0.921875 -1.125 "/></g></g></g></svg>